<!-- Neural Glass – Compact Halo-style HUD
     Borderless app boundary defined by creative perimeter geometry.

     STANDARD VIDEO ANCHOR SPECIFICATION:
     =====================================
     ViewBox: 0 0 800 500
     Video Region: 640x360 (360p, 16:9 aspect ratio)
     Video Anchors: (80, 70) to (720, 430)
     Corner Radius: 16px

     CSS Positioning (percentage-based):
       left: 10%, top: 14%, width: 80%, height: 72%

     Theme authors: Keep video anchors at these coordinates for compatibility.
-->
<svg xmlns="http://www.w3.org/2000/svg"
     viewBox="0 0 800 500"
     width="100%" height="100%"
     preserveAspectRatio="none">

  <defs>
    <style>
      .hud {
        stroke: rgba(120,255,245,0.88);
        stroke-width: 1.7;
        fill: none;
        stroke-linecap: round;
        stroke-linejoin: round;
      }
      .hud-dim {
        stroke: rgba(120,255,245,0.35);
        stroke-width: 1.2;
        fill: none;
      }
      .hud-ghost {
        stroke: rgba(120,255,245,0.14);
        stroke-width: 1.0;
        fill: none;
      }

      .hud-text {
        fill: rgba(230,255,255,0.92);
        font-family: system-ui, -apple-system, Segoe UI, Roboto, sans-serif;
        font-size: 13px;
        letter-spacing: 0.18em;
      }
      .hud-micro {
        fill: rgba(230,255,255,0.62);
        font-family: ui-monospace, SFMono-Regular, Menlo, Consolas, monospace;
        font-size: 10px;
        letter-spacing: 0.12em;
      }
      .dot { fill: rgba(120,255,245,0.72); }
      .dot-dim { fill: rgba(120,255,245,0.38); }
      .hud-bg { fill: rgba(10, 14, 18, 0.95); stroke: none; fill-rule: evenodd; }
    </style>

    <filter id="glow" x="-30%" y="-30%" width="160%" height="160%">
      <feGaussianBlur stdDeviation="1.9" result="b"/>
      <feColorMatrix in="b" type="matrix"
        values="
          1 0 0 0 0
          0 1 0 0 0
          0 0 1 0 0
          0 0 0 0.85 0"/>
      <feMerge>
        <feMergeNode/>
        <feMergeNode in="SourceGraphic"/>
      </feMerge>
    </filter>

    <linearGradient id="scanlineGrad" x1="0" x2="0" y1="0" y2="1">
      <stop offset="0" stop-color="rgba(120,255,245,0)" />
      <stop offset="0.5" stop-color="rgba(120,255,245,0.07)" />
      <stop offset="1" stop-color="rgba(120,255,245,0)" />
    </linearGradient>
  </defs>

  <!-- ================= TRANSLUCENT BACKGROUND WITH VIDEO CUTOUT ================= -->
  <!-- Outer frame path (clockwise) + Video cutout with curved corners (counter-clockwise) -->
  <!-- Video anchors: (80, 70) to (720, 430), 16px corner radius -->
  <path class="hud-bg"
        d="M 38 8 L 150 8 L 165 22 L 300 22 L 315 8 L 620 8 L 635 24 L 760 24
           L 786 50 L 786 125 L 800 140 L 800 360 L 784 376 L 784 448 L 758 474
           L 644 474 L 628 490 L 330 490 L 312 476 L 185 476 L 170 490 L 60 490
           L 32 462 L 32 382 L 16 366 L 16 140 L 30 126 L 30 46 L 16 30 L 16 8 L 38 8 Z
           M 96 70 Q 80 70 80 86 L 80 414 Q 80 430 96 430
           L 704 430 Q 720 430 720 414 L 720 86 Q 720 70 704 70 Z"/>

  <!-- ================= OUTER WINDOW GEOMETRY ================= -->
  <g filter="url(#glow)">
    <!-- Primary creative perimeter -->
    <path class="hud"
          d="
            M 38 8
            L 150 8
            L 165 22
            L 300 22
            L 315 8
            L 620 8
            L 635 24
            L 760 24
            L 786 50
            L 786 125
            L 800 140
            L 800 360
            L 784 376
            L 784 448
            L 758 474
            L 644 474
            L 628 490
            L 330 490
            L 312 476
            L 185 476
            L 170 490
            L 60 490
            L 32 462
            L 32 382
            L 16 366
            L 16 140
            L 30 126
            L 30 46
            L 16 30
            L 16 8
            L 38 8
            Z
          "/>

    <!-- Secondary echo perimeter -->
    <path class="hud-ghost"
          d="
            M 50 28
            L 136 28
            L 152 42
            L 306 42
            L 324 28
            L 608 28
            L 626 44
            L 744 44
            L 764 64
            L 764 116
            L 782 134
            L 782 358
            L 768 374
            L 768 438
            L 746 460
            L 634 460
            L 616 476
            L 342 476
            L 322 462
            L 178 462
            L 160 476
            L 74 476
            L 44 448
            L 44 390
            L 30 376
            L 30 140
            L 42 128
            L 42 58
            L 30 44
            L 30 28
            L 50 28
            Z
          "/>

    <!-- Notch highlights -->
    <path class="hud-dim"
          d="
            M 165 22 L 165 8
            M 315 8 L 315 22
            M 635 24 L 635 8
            M 628 490 L 628 476
            M 170 490 L 170 476
            M 16 140 L 30 140
            M 800 140 L 786 140
            M 16 366 L 32 366
            M 784 376 L 800 376
          "/>


    <!-- Outer nodes -->
    <circle cx="27" cy="19" r="3" class="dot"/>
    <circle cx="764" cy="46" r="3" class="dot"/>
    <circle cx="76" cy="460" r="3" class="dot-dim"/>
    <circle cx="764" cy="460" r="3" class="dot-dim"/>
  </g>

  <!-- ================= TOP SYSTEM BAND ================= -->
  <circle cx="660" cy="56" r="4" class="dot"/>
  <path class="hud-dim" d="M 80 62 L 720 62"/>

  <!-- ================= VIDEO CORNER BRACKETS ================= -->
  <!-- Video anchors: (80, 70) to (720, 430), 16px corner radius -->
  <g filter="url(#glow)">
    <path class="hud"
          d="
            M 80 100 L 80 86 Q 80 70 96 70 L 110 70

            M 690 70 L 704 70 Q 720 70 720 86 L 720 100

            M 80 400 L 80 414 Q 80 430 96 430 L 110 430

            M 690 430 L 704 430 Q 720 430 720 414 L 720 400
          "/>

    <!-- Side diagnostic rails -->
    <path class="hud-dim"
          d="M 66 120 L 66 380
             M 734 120 L 734 380" />

    <!-- Rail ticks -->
    <path class="hud-dim"
          d="
            M 66 160 L 78 160
            M 66 210 L 74 210
            M 66 260 L 78 260
            M 66 310 L 74 310
            M 66 360 L 78 360

            M 734 160 L 722 160
            M 734 210 L 726 210
            M 734 260 L 722 260
            M 734 310 L 726 310
            M 734 360 L 722 360
          " />

    <!-- Diagonal projection braces -->
    <path class="hud-dim"
          d="
            M 116 110 L 142 84
            M 684 110 L 658 84
            M 116 390 L 140 414
            M 684 390 L 660 414
          " />

    <!-- Tiny nodes at bracket ends -->
    <circle cx="110" cy="70" r="2.6" class="dot"/>
    <circle cx="690" cy="70" r="2.2" class="dot-dim"/>
    <circle cx="110" cy="430" r="2.2" class="dot-dim"/>
    <circle cx="690" cy="430" r="2.6" class="dot"/>
  </g>

  <!-- ================= RIGHT DIAGNOSTIC BLADE ================= -->
  <g filter="url(#glow)">
    <path class="hud"
          d="
            M 778 150
            L 792 164
            L 792 336
            L 778 350
            L 756 350
            L 746 340
            L 746 160
            L 756 150
            Z
          "/>
    <circle cx="782" cy="324" r="3" class="dot"/>
  </g>

  <!-- ================= BOTTOM CONTROL BAY ================= -->
  <path class="hud" filter="url(#glow)" d="M 80 440 L 720 440"/>

  <path class="hud-dim"
        d="M 220 462 L 220 492
           M 370 462 L 370 492
           M 520 462 L 520 492" />

  <circle cx="150" cy="472" r="3" class="dot"/>
  <circle cx="300" cy="472" r="3" class="dot"/>
  <circle cx="450" cy="472" r="3" class="dot"/>
  <circle cx="600" cy="472" r="3" class="dot"/>

  <!-- Subtle scanline above video (optional) -->
  <rect x="80" y="70" width="640" height="12"
        fill="url(#scanlineGrad)" opacity="0.45"/>

</svg>
